<?xml version="1.0" encoding="utf-8"?>
<!-- Generator: Adobe Illustrator 24.3.0, SVG Export Plug-In . SVG Version: 6.00 Build 0)  -->
<svg version="1.1" id="Layer_1" xmlns="http://www.w3.org/2000/svg" xmlns:xlink="http://www.w3.org/1999/xlink" x="0px" y="0px"
	 viewBox="0 0 1000 1000" style="enable-background:new 0 0 1000 1000;" xml:space="preserve">
<style type="text/css">
	.st0{fill:#1F3343;}
	.st1{fill:#05BACC;}
	.st2{fill:#F2F2F2;}
	.st3{fill:url(#SVGID_1_);}
	.st4{fill:#FD7165;}
</style>
<g>
	<g>
		<path class="st0" d="M259.5,415.2l-11.1,18.5h-38.4l8.5,7.7l-34,56.7h-17.2c-1.7,0-2.8-0.6-3.3-1.9c-0.5-1.3-0.2-2.7,0.8-4.4
			l34.9-58h-19.4c-1.6,0-2.7-0.6-3.1-1.8c-0.5-1.2-0.2-2.6,0.7-4.2l7.5-12.5H259.5 M284.1,401.3h-24.6h-74.3h-7.9l-4.1,6.7
			l-7.5,12.5c-4.3,7.2-2.9,13.5-1.7,16.5c2,5,6.1,8.6,11.3,9.9l-22.6,37.6c-4.4,7.4-3,13.6-1.8,16.7l0,0c2.6,6.6,8.8,10.6,16.2,10.6
			h17.2h7.9l4.1-6.7l34-56.7l0.6-0.9h17.5h7.9l4.1-6.7l11.1-18.5L284.1,401.3L284.1,401.3z"/>
		<path class="st0" d="M310,433.2L299.3,451h-37.4l4,2.7l-2.3,3.8h28l-10.4,17.3h-28l-4.5,7.4h32.9l-10.7,17.8h-43.5
			c-3.9,0-5.5-2-6.2-3.6c-0.9-2.2-0.5-4.8,1.2-7.6l33.5-55.7H310 M334.6,419.3H310h-54.1H248L244,426l-33.5,55.7
			c-5.4,9-3.6,16.5-2.1,20.2c3.2,7.5,10.3,12.1,19,12.1h43.5h7.9l4.1-6.7l10.7-17.8l12.7-21.1h-4.9l2.1-3.5h3.8l4.1-6.7l10.7-17.8
			L334.6,419.3L334.6,419.3z"/>
		<path class="st0" d="M412.2,433.2l-40.2,66.9h-22.6l40.2-66.9H412.2 M436.7,419.3h-24.6h-22.6h-7.9l-4.1,6.7L337.4,493L324.8,514
			h24.6h22.6h7.9l4.1-6.7l40.2-66.9L436.7,419.3L436.7,419.3z"/>
		<path class="st0" d="M483,433.2l-40.2,66.9h-17.5l-6.8-30.1l-14.1,23.5c-0.7,1.2-1.7,2.3-2.9,3.3c-1.2,1-2.5,1.8-3.8,2.4
			c-1.4,0.6-2.7,0.9-4,0.9h-15.5l36.5-60.7c1-1.7,2.5-3.2,4.4-4.4c2-1.2,3.9-1.9,5.8-1.9h10.9l7.8,32.7l0-4l13.7-22.8
			c1-1.6,2.4-3,4.2-4.2c1.8-1.2,3.7-1.7,5.4-1.7H483 M507.5,419.3H483h-16.2c-4.4,0-8.7,1.3-12.8,3.8c-2,1.2-3.8,2.7-5.3,4.3
			l-1.9-8.2h-11h-10.9c-4.5,0-9,1.3-13.2,4c-3.8,2.4-6.8,5.4-9,9L366.2,493L353.5,514h24.6h15.5c3.2,0,6.4-0.7,9.6-2.1
			c2.5-1.1,4.9-2.6,7.1-4.4c0.7-0.6,1.4-1.2,2-1.8l1.9,8.3h11.1h17.5h7.9l4.1-6.7l40.2-66.9L507.5,419.3L507.5,419.3z"/>
		<path class="st0" d="M611.2,433.2c9.3,0,15.4,2.4,18.3,7.2c2.9,4.8,2.1,11.3-2.6,19.1c-5.5,9.2-13.6,16-23.9,20.2l1.8,20.5h-23.2
			l-1.3-16.7h-6.7l-6.1,10.2c-1.1,1.8-2.7,3.3-4.7,4.6c-2.1,1.3-4.1,1.9-6,1.9h-15.8l40.2-66.9H611.2 M584.5,465.5h6.2
			c3.3,0,6.2-0.7,8.7-2.1c2.5-1.4,4.5-3.4,6.1-6.1c1.3-2.2,1.8-3.9,1.3-4.8c-0.2-0.4-1.2-1.4-5.1-1.4H588l3.7,2.3L584.5,465.5
			 M611.2,419.3h-29.9h-7.9l-4.1,6.7L529.2,493L516.5,514h24.6h15.8c3.9,0,7.8-1,11.6-3l0.2,3h12.9h23.2H620l-1.3-15.1l-1-11.1
			c8.7-5.2,15.8-12.3,21.1-21.2c9.4-15.7,6.6-26.9,2.6-33.5C637.6,426.8,629.2,419.3,611.2,419.3L611.2,419.3z"/>
		<path class="st0" d="M697.4,433.2l-10.5,66.9h-22.7l2.4-12.2h-23.3l-12.3,12.2H607l69.8-66.9H697.4 M660.5,470.7h12.3l-2.7-1
			l2.2-10.9L660.5,470.7 M713.7,419.3h-16.3h-20.7h-5.6l-4,3.9l-69.8,66.9l-25,23.9H607h24.1h5.7l4.1-4.1l8.2-8.2h0.6l-2.4,12.2
			h16.9h22.7h11.9l1.8-11.7l10.5-66.9L713.7,419.3L713.7,419.3z"/>
		<path class="st0" d="M751.3,433.2l-40.2,66.9h-22.6l40.2-66.9H751.3 M775.9,419.3h-24.6h-22.6h-7.9l-4.1,6.7L676.6,493L663.9,514
			h24.6h22.6h7.9l4.1-6.7l40.2-66.9L775.9,419.3L775.9,419.3z"/>
		<path class="st0" d="M822.9,433.2l-40.2,66.9h-17.5l-6.8-30.1l-14.1,23.5c-0.7,1.2-1.7,2.3-2.9,3.3c-1.2,1-2.5,1.8-3.8,2.4
			c-1.4,0.6-2.7,0.9-4,0.9h-15.5l36.5-60.7c1-1.7,2.5-3.2,4.4-4.4c2-1.2,3.9-1.9,5.8-1.9h10.9l7.8,32.7l0-4l13.7-22.8
			c1-1.6,2.4-3,4.2-4.2c1.8-1.2,3.7-1.7,5.4-1.7H822.9 M847.5,419.3h-24.6h-16.2c-4.4,0-8.7,1.3-12.8,3.8c-2,1.2-3.8,2.7-5.3,4.3
			l-1.9-8.2h-11h-10.9c-4.5,0-9,1.3-13.2,4c-3.8,2.4-6.8,5.4-9,9L706.2,493L693.5,514h24.6h15.5c3.2,0,6.4-0.7,9.6-2.1
			c2.5-1.1,4.9-2.6,7.1-4.4c0.7-0.6,1.4-1.2,2-1.8l1.9,8.3h11.1h17.5h7.9l4.1-6.7l40.2-66.9L847.5,419.3L847.5,419.3z"/>
		<path class="st0" d="M385.3,433.2l-47,30.8l-6,3.9l0,0c2.4,28.4,10.4,47.2,20.5,59.6c-0.5,4.4,0.2,9,2.3,12.9
			c0.9,1.7,2.1,3.3,3.3,4.8c-1.4-3.3-2.1-7.1-1.6-10.6c0.1-0.7,0.2-1.4,0.4-2.1c3.2,3.2,6.6,5.9,10,8.1c-0.5,4.4,0.3,9,2.3,12.8
			c0.9,1.7,2.1,3.3,3.3,4.8c-1.4-3.3-2.1-7.1-1.6-10.6c0.2-1.4,0.5-2.8,1-4.1c3.7,1.9,7.4,3.4,10.9,4.4c-0.2,3.9,0.6,7.8,2.4,11.2
			c0.9,1.7,2.1,3.3,3.3,4.8c-1.4-3.3-2.1-7.1-1.6-10.6c0.2-1.4,0.5-2.7,1-4c3.2,0.7,6.4,1.1,9.2,1.4c-0.2,3.9,0.6,7.8,2.4,11.2
			c0.9,1.7,2.1,3.3,3.3,4.8c-1.4-3.3-2.1-7.1-1.6-10.6c0.2-1.7,0.7-3.5,1.4-5.1c0.2,0,0.3,0,0.5,0c3,0,5.6-0.2,7.6-0.4
			c3.9-6.3,8.3-13.4,8.4-13.6l0,0c0.4-1,1-1.7,1.8-2.2c0.8-0.5,1.7-0.7,2.6-0.7c1.6,0,3.5,0.6,5.6,1.8l26.3-45.3l3.1-1.5l-1-2.7
			l3.7-2.3l-0.8-2.3l4-2l-0.8-2.1l4.5-1.3l-0.3-2.6l4.1-1.9l-0.3-2.5l4.5-1l0.1-2.1l4-1.5l0.1-1.7l4.6-0.8l-0.2-2.1l4.7,0.2
			l-0.2-2.2l5.3-0.2l-0.5-2.1l4.3,0.8l1.4-2.2l3.6,1.6l1.5-1.6l3.6,1l1.8-1.2l2.9,1.6l2.8-1l2.1,2.5l3.2-0.7l1.6,2.1l2.9-1l1.7,2.2
			l2.5,0.1l0.9,1.4c-0.7,0-1.3,0-1.9,0c-33.8,0-45.1,13.2-53.7,22.7c-7,7.8-28.1,46.3-35.9,60.6c1,1.2,2,2.4,3,3.7
			c52.8-15.9,96.7-54.4,96.7-54.4l2.5,2.6l-2.5,1.6l2.8,4.2l-3.9,1l2.8,5l-3.6,0.4l2.1,4.7l-3.8,0.6l1.6,4.9l-4.1-0.1l0.7,4.8
			l-3.5-0.6l-0.2,5.2l-4.1-0.9l-0.5,4.5l-3.2-1.9l-2,5.3l-3.6-2.1l-1.6,5.7l-3.6-2.4l-1.7,5.7l-3.6-2l-1.4,4.9l-3.1-2.4l-1.9,5.7
			l-3.3-2.5c0,0-1.5,4.5-1.8,4.6c0,0,0,0,0,0c-0.5,0-3-2-3-2l-1.2,4.9l-3.2-2.8l-1.7,4.2l-2.5-1.6l-1.5,3.6l-3.2-2.2l-0.8,3.8
			l-12.1,4.4l36.7-1.3l3.5,1.8l0.6-2l4.6,1.5l1.4-2l3.8,1.6l0.6-2.4l4.4,1.1l0.9-2.1l4.1,0.9l0.5-2.7l4.2,0.9l0.5-2.4l4,0.6l1-2.9
			l3.9,0.3l0.3-2.4l3.8,0l0.3-2.9l3.6,0.1l0.8-3.1l2.2,0.2l1.1-3.2l2.5,0.6l1.2-3.3l2.1,0.5l1.1-2.8l1.8,0.4l1.1-2.5l1.4,0.4
			l1.2-2.8l1.8,0.8l0.3-1.8l2.1,0.3l1-1.1l1.3,2.1c-12.3,25.1-24.2,30.6-44,38.8c-8.8,3.6-23.2,4.7-36.5,4.7
			c-16.7,0-31.6-1.6-31.6-1.6l-4.4,0.2c0.4,4-0.4,7-2.5,8.3c-0.5,0.3-1.1,0.6-1.8,0.7l0,0l-0.1,0c-0.3,0-0.5,0.1-0.8,0.1
			c-0.1,0-0.3,0-0.4,0l-28.5,0.9c-72.8-0.2-107.1-84-113.2-100.6l-9.5,15.9h-13.7c-3,0-4.1-1.7-4.5-2.8c-0.6-1.6-0.4-3.4,0.8-5.3
			l35.3-58.8H330c2.8,0,3.9,1.6,4.2,2.6c0.6,1.5,0.4,3.2-0.7,5L325,455l33.2-21.7H385.3 M421,536.8C421,536.8,421,536.8,421,536.8
			c-0.6,0.4-1,0.8-1.4,1.4c-0.6,0.9-0.9,2.1-1.1,3.5c-0.5,5.6,2.5,14.7,8.3,23.8c6.5,10.2,14.6,17.2,20,18c0.3,0,0.6,0.1,0.9,0.1
			c0.6,0,1.2-0.1,1.7-0.3c0.3-0.1,0.6-0.2,0.8-0.4c0.7-0.5,1.3-1.2,1.7-2c-0.7,0.4-1.5,0.6-2.5,0.6c-1.2,0-2.6-0.4-4.1-1.1
			c-2.1-1-4.5-2.7-6.9-4.9c0,0,0,0-0.1-0.1c-0.8-0.7-1.6-1.5-2.4-2.4c-0.3-0.3-0.5-0.6-0.8-0.8c-2.3-2.5-4.6-5.5-6.7-8.8
			c-1.1-1.8-2.2-3.6-3.1-5.3c-1.3-2.5-2.4-5-3.2-7.4c-1.3-3.8-2-7.2-2-10C420.3,539.1,420.6,537.8,421,536.8 M423.7,545.4l2.9-5
			c-0.5,0-1,0.2-1.4,0.4C424,541.6,423.6,543.2,423.7,545.4 M436.7,549.7c0.7-0.2,1.3-0.4,2-0.5c-0.3-0.4-0.7-0.8-1-1.2
			C437.1,549.1,436.7,549.7,436.7,549.7 M446.6,577.3c0.6,0,1.1-0.1,1.6-0.4c0.6-0.4,1-1,1.3-1.8l-7.7,0.3
			C443.5,576.6,445.2,577.3,446.6,577.3 M431.8,419.3h-46.6h-27.1H354l-3.5,2.3l-6.3,4.1c-3.4-4.1-8.5-6.4-14.2-6.4h-14.3h-7.9
			l-4.1,6.7l-35.3,58.8c-3.4,5.7-4.1,12-1.8,17.7c2.8,7.1,9.5,11.5,17.4,11.5h13.7h7.6c5.5,10.7,13,23.2,22.7,35.3
			c11.5,14.3,24.2,25.7,37.8,33.9c17,10.2,35.4,15.4,54.7,15.4l0.2,0l0.2,0l28.1-0.9c0.2,0,0.3,0,0.5,0c0.6,0,1.2,0,1.8-0.1
			l40.7-1.3l-8.8-6.3c2.5,0.1,5,0.1,7.6,0.1c18.9,0,32.6-1.9,41.8-5.7c9.5-3.9,19.3-8,28.1-15c9.2-7.2,16.3-16.7,23-30.5l3.4-7
			l-4.2-6.6l-1.3-2.1l-10.1-15.8l-7.3-3.9l-2.4,8.3c-0.4,1.3-2.1,1.5-2.7,0.3l0,0l5.4-1.3l-5.9-8.9l4.8-3.1l-11.6-12.2l-2.5-2.6
			l-8.5-9l15.8,0.2l-13.9-21.8l-0.9-1.4l-4-6.3l-3.3-0.1l-3.8-4.9l-3,1.1l-0.8-1l-3.5,0.8l-3-3.5l-6,2.2l-4.6-2.6l-3.6,2.3l-5.7-1.6
			l-0.4,0.4l-5.7-2.6l-2.8,4.5l-16.1-3l1.6,6.4l-2.9,0.1l0.1,1.1l-4.7-0.2l0.4,5L467,451l-0.2,3.8l-4,1.6l0,0.6l-6.6,1.5l0.7,4.9
			l-3.9,1.8l0.1,1l-7.8,2.3l1.8,4.5l-3.6,1.9l1.1,3.1l-3.8,2.3l1.9,5L427,512l-5.1-18.7l-15.1,37.2c-0.5,0.8-1.6,2.6-3.9,6.3l-2.3,0
			l-2.2-0.2c-2.5-0.2-5-0.6-7.4-1.1l-2-0.4l-2-0.6c-3-0.9-5.8-2-8.5-3.4l-2-1l-1.8-1.2c-2.8-1.8-5.4-3.9-7.7-6.3l-1.7-1.7l-1.7-2.1
			c-8.4-10.4-14-25.1-16.5-43.8l45.9-30.1L431.8,419.3L431.8,419.3z M466.9,523.7c10.1-17.9,16.6-28.1,18.9-30.7l0.4-0.5
			c7.8-8.7,15.8-17.6,42.9-17.6c0.6,0,1.2,0,1.7,0l8.5,0.1l-9.3,8.1C529.8,483.5,502.8,506.8,466.9,523.7L466.9,523.7z"/>
		<path class="st0" d="M540.1,415.2c13.9,0,22.8,3.7,26.9,11.2c4,7.5,2.3,17.6-5.3,30.2c-7.6,12.7-17.9,22.7-31,30.2
			c-13,7.5-26.5,11.2-40.3,11.2h-15.4c1.9-4.5,5.5-11.7,11.2-18.7h14.6c7.1,0,14.1-2,20.8-6.1c6.7-4.1,12.2-9.6,16.5-16.7
			c4.3-7.1,5.5-12.6,3.6-16.7c-1.9-4-6.3-6-13.5-6l-28.4,0.3l-20.3,15l21.6-34H540.1 M540.1,401.3H501h-7.6l-4.1,6.4l-21.6,34
			L427.3,505l50.3-37.3l-2.3,2.9c-6.7,8.2-10.9,16.5-13.2,22L454,512h21h15.4c16.3,0,32.2-4.4,47.3-13.1c15.1-8.6,27.2-20.5,36-35.1
			c10.3-17.1,12.2-31.9,5.7-44c-3.6-6.6-9.2-11.5-16.6-14.6C556.4,402.6,549,401.3,540.1,401.3L540.1,401.3z M504.2,448l22.6-0.2
			c-0.3,0.5-0.6,1-0.9,1.6c-3.1,5.2-6.9,9.1-11.7,12c-4.5,2.8-9,4.1-13.6,4.1h-14.6h-5.4l6.9-5.1L504.2,448L504.2,448z"/>
	</g>
	<path class="st1" d="M199.5,433.9h-19.4c-1.6,0-2.7-0.6-3.1-1.8c-0.5-1.2-0.2-2.6,0.7-4.2l7.5-12.5h74.3l-11.1,18.5h-38.4l8.5,7.7
		l-34,56.7h-17.2c-1.7,0-2.8-0.6-3.3-1.9c-0.5-1.3-0.2-2.7,0.8-4.4L199.5,433.9z"/>
	<g>
		<g>
			<path class="st1" d="M278,484.5l-8.2,13.7h-42.4c-2.2,0-3.6-0.8-4.3-2.3c-0.7-1.6-0.3-3.5,1.1-5.8l32.9-54.7h49.4l-8.2,13.7
				h-42.8l7.9,5.4l-3.2,5.3h28l-8,13.3h-28l-6.9,11.5H278z"/>
			<path class="st1" d="M270.9,500.2h-43.5c-3.9,0-5.5-2-6.2-3.6c-0.9-2.2-0.5-4.8,1.2-7.6l33.5-55.7H310l-10.7,17.8h-37.4l4,2.7
				l-2.3,3.8h28L281.2,475h-28l-4.5,7.4h32.9L270.9,500.2z M251.3,448.8l-25.4,42.3c-0.7,1.2-1.4,2.8-0.9,3.9
				c0.2,0.4,0.5,1.1,2.4,1.1h41.2l5.8-9.6h-32.9l9.4-15.6h28l5.5-9.2h-28l4-6.7L251.3,448.8z M252.4,447H297l5.8-9.6h-44.6
				L252.4,447z"/>
		</g>
	</g>
	<path class="st1" d="M385.3,433.3h-27.1L325,455.1l8.5-14.2c1.1-1.8,1.3-3.4,0.7-5c-0.4-1-1.5-2.6-4.2-2.6h-14.3l-35.3,58.8
		c-1.2,1.9-1.4,3.7-0.8,5.3c0.4,1,1.5,2.8,4.5,2.8h13.7l9.8-16.4l30.6-19.8L385.3,433.3z"/>
	<g>
		<g>
			<path class="st1" d="M353,498.2l37.8-62.8h17.8l-37.8,62.8H353z"/>
			<path class="st1" d="M371.9,500.2h-22.6l40.2-66.9h22.6L371.9,500.2z M356.6,496.2h13.1l35.3-58.7h-13.1L356.6,496.2z"/>
		</g>
	</g>
	<g>
		<g>
			<path class="st1" d="M466.8,435.4h12.6l-37.8,62.8h-14.7l-7.5-33.5l-16.7,27.9c-0.6,1-1.4,1.9-2.5,2.8c-1.1,0.9-2.2,1.6-3.3,2.1
				c-1.1,0.5-2.2,0.7-3.2,0.7h-11.9l34.6-57.6c0.9-1.4,2.1-2.7,3.8-3.7c1.6-1,3.2-1.5,4.8-1.5h9.3l11.4,48l0-20.8l13.4-22.3
				c0.8-1.4,2-2.5,3.5-3.5C464,435.8,465.4,435.4,466.8,435.4z"/>
			<path class="st1" d="M442.7,500.2h-17.5l-6.8-30.1l-14.1,23.5c-0.7,1.2-1.7,2.3-2.9,3.3c-1.2,1-2.5,1.8-3.8,2.4
				c-1.4,0.6-2.7,0.9-4,0.9h-15.5l36.5-60.7c1-1.7,2.5-3.2,4.4-4.4c2-1.2,3.9-1.9,5.8-1.9h10.9l7.8,32.7l0-4l13.7-22.8
				c1-1.6,2.4-3,4.2-4.2c1.8-1.2,3.7-1.7,5.4-1.7H483L442.7,500.2z M428.5,496.2h11.9l4.3-7.1l-12.2-51.6h-7.6
				c-1.1,0-2.4,0.4-3.7,1.2c-1.4,0.9-2.4,1.9-3.1,3l-32.7,54.5h8.3c0.7,0,1.5-0.2,2.4-0.6c1-0.4,1.9-1,2.8-1.8
				c0.9-0.7,1.6-1.5,2-2.3l19.4-32.2L428.5,496.2z M447.6,463.1l0,21.2l28.2-46.9h-9c-1,0-2.1,0.4-3.3,1.1c-1.3,0.8-2.2,1.7-2.9,2.8
				L447.6,463.1z"/>
		</g>
	</g>
	<g>
		<path class="st2" d="M583.5,498.2l-1.3-16.7h-9.7l-6.7,11.2c-0.9,1.5-2.2,2.8-4,3.9c-1.7,1.1-3.4,1.6-4.9,1.6h-12.2l37.8-62.8
			h28.8c8.5,0,14.1,2.1,16.6,6.2c2.5,4.2,1.6,9.8-2.7,17c-5.6,9.3-13.7,15.9-24.3,19.9l1.7,19.8H583.5z M607.2,458.6
			c1.8-3,2.2-5.3,1.3-6.9c-0.9-1.6-3.2-2.4-6.8-2.4h-20.8l7.9,5l-8,13.4h9.8c3.7,0,6.9-0.8,9.7-2.3
			C603.2,463.8,605.5,461.5,607.2,458.6z"/>
		<path class="st2" d="M604.9,500.2h-23.2l-1.3-16.7h-6.7l-6.1,10.2c-1.1,1.8-2.7,3.3-4.7,4.6c-2.1,1.3-4.1,1.9-6,1.9h-15.8
			l40.2-66.9h29.9c9.3,0,15.4,2.4,18.3,7.2c2.9,4.8,2.1,11.3-2.6,19.1c-5.5,9.2-13.6,16-23.9,20.2L604.9,500.2z M585.4,496.2h15
			l-1.7-19.1l1.5-0.5c10.1-3.8,17.9-10.2,23.2-19c3.9-6.4,4.8-11.4,2.7-14.8c-2.1-3.5-7.1-5.2-14.8-5.2h-27.6l-5.9,9.8h24
			c4.5,0,7.3,1.1,8.6,3.4c1.3,2.3,0.8,5.3-1.3,8.9l0,0c-2,3.3-4.5,5.8-7.6,7.5c-3.1,1.7-6.7,2.6-10.7,2.6h-13.4l8.9-14.7l-9.5-6
			l-28.3,47.1h8.6c1.1,0,2.4-0.4,3.8-1.3c1.5-0.9,2.6-2,3.3-3.2l7.3-12.2h12.8L585.4,496.2z M584.5,465.6h6.2c3.3,0,6.2-0.7,8.7-2.1
			c2.5-1.4,4.5-3.4,6.1-6.1l0,0c1.3-2.2,1.8-3.9,1.3-4.8c-0.2-0.4-1.2-1.4-5.1-1.4H588l3.7,2.3L584.5,465.6z"/>
	</g>
	<g>
		<path class="st2" d="M666.6,498.2l2.4-12.2h-26.6l-12.3,12.2H612l65.5-62.8H695l-9.9,62.8H666.6z M655.6,472.8h29.1l-12.2-4.3
			l3.2-15.8L655.6,472.8z"/>
		<path class="st2" d="M686.9,500.2h-22.7l2.4-12.2h-23.3l-12.3,12.2H607l69.8-66.9h20.7L686.9,500.2z M669.1,496.2h14.3l3.3-21.3
			h-36.1l28.4-28.4l-4.2,20.7l12.4,4.4l5.4-34.2h-14.3l-61.2,58.7h12.2l12.3-12.2h30L669.1,496.2z M660.5,470.8h12.3l-2.7-1
			l2.2-10.9L660.5,470.8z"/>
	</g>
	<g>
		<path class="st2" d="M692.1,498.2l37.8-62.8h17.8l-37.8,62.8H692.1z"/>
		<path class="st2" d="M711.1,500.2h-22.6l40.2-66.9h22.6L711.1,500.2z M695.7,496.2h13.1l35.3-58.7H731L695.7,496.2z"/>
	</g>
	<g>
		<path class="st2" d="M806.7,435.4h12.6l-37.8,62.8h-14.7l-7.5-33.5l-16.7,27.9c-0.6,1-1.4,1.9-2.5,2.8c-1.1,0.9-2.2,1.6-3.3,2.1
			c-1.1,0.5-2.2,0.7-3.2,0.7h-11.9l34.6-57.6c0.9-1.4,2.1-2.7,3.8-3.7c1.6-1,3.2-1.5,4.8-1.5h9.3l11.4,48l0-20.8l13.4-22.3
			c0.8-1.4,2-2.5,3.5-3.5C803.9,435.8,805.4,435.4,806.7,435.4z"/>
		<path class="st2" d="M782.7,500.2h-17.5l-6.8-30.1l-14.1,23.5c-0.7,1.2-1.7,2.3-2.9,3.3c-1.2,1-2.5,1.8-3.8,2.4
			c-1.4,0.6-2.7,0.9-4,0.9h-15.5l36.5-60.7c1-1.7,2.5-3.2,4.4-4.4c2-1.2,3.9-1.9,5.8-1.9h10.9l7.8,32.7l0-4l13.7-22.8
			c1-1.6,2.4-3,4.2-4.2c1.8-1.2,3.7-1.7,5.4-1.7h16.2L782.7,500.2z M768.5,496.2h11.9l4.3-7.1l-12.2-51.6h-7.6
			c-1.1,0-2.4,0.4-3.7,1.2c-1.4,0.9-2.4,1.9-3.1,3l-32.7,54.5h8.3c0.7,0,1.5-0.2,2.4-0.6c1-0.4,1.9-1,2.8-1.8c0.9-0.7,1.6-1.5,2-2.3
			l19.4-32.2L768.5,496.2z M787.5,463.1l0,21.2l28.2-46.9h-9c-1,0-2.1,0.4-3.3,1.1c-1.3,0.8-2.2,1.7-2.9,2.8L787.5,463.1z"/>
	</g>
	<path class="st2" d="M567,426.5c-4-7.5-13-11.2-26.9-11.2H501l-11.5,19.1L528,434c7.1,0,11.6,2,13.5,6c1.9,4,0.7,9.6-3.6,16.7
		c-4.3,7.1-9.7,12.7-16.5,16.7c-6.7,4.1-13.6,6.1-20.8,6.1h-14.6c-5.7,7-9.3,14.1-11.2,18.7h15.4c13.9,0,27.3-3.7,40.3-11.2
		c13-7.5,23.4-17.6,31-30.2C569.3,444.1,571,434,567,426.5z"/>
	<g>
		<g>
			<path class="st1" d="M425.5,558.1l9.8,14.2c0.3,0.3,0.5,0.6,0.8,0.8l-14.1-24.4l0.3,1.9C423.1,553.1,424.2,555.6,425.5,558.1z"/>
			<path class="st1" d="M450.3,583.9l-1.2,0C449.5,584,449.9,584,450.3,583.9z"/>
			<path class="st1" d="M438.7,549.3c1.3-0.4,2.6-0.7,3.9-1.1c-1-1.3-2-2.5-3-3.7c-0.8,1.5-1.4,2.7-1.9,3.6
				C438,548.5,438.4,548.9,438.7,549.3z"/>
			<path class="st1" d="M421,536.9C421,536.9,421,536.9,421,536.9c-0.4,1-0.6,2.3-0.7,3.8l0.7,2.9l0.9,5l1.8-3
				c-0.1-2.2,0.4-3.8,1.5-4.6c0.4-0.3,0.9-0.4,1.4-0.4l2.8-4.9c-3.3-1.8-6.2-2.3-8.2-1c-0.8,0.5-1.4,1.3-1.8,2.2l0.3,1.4
				C420,537.7,420.5,537.2,421,536.9z"/>
			<path class="st1" d="M448.2,577c-1.5,0.9-3.8,0.3-6.5-1.5l-3.2,0.1c0,0,0,0,0.1,0.1l6.9,4.9c2.6,1.2,4.9,1.4,6.5,0.4
				c-0.4,0.9-1,1.6-1.7,2c-0.3,0.2-0.5,0.3-0.8,0.4l0.9,0.6c0.7-0.1,1.3-0.3,1.8-0.7c2.1-1.3,2.9-4.3,2.5-8.3l-5.3,0.2
				C449.2,576,448.8,576.6,448.2,577z"/>
			<path class="st1" d="M569.9,530.9l-1,1.1l-2.1-0.3l-0.3,1.8l-1.8-0.8l-1.2,2.8l-1.4-0.4l-1.1,2.5l-1.8-0.4l-1.1,2.8l-2.1-0.5
				l-1.2,3.3l-2.5-0.6l-1.1,3.2l-2.2-0.2l-0.8,3.1l-3.6-0.1l-0.3,2.9l-3.8,0l-0.3,2.4l-3.9-0.3l-1,2.9l-4-0.6l-0.5,2.4l-4.2-0.9
				l-0.5,2.7l-4.1-0.9l-0.9,2.1l-4.4-1.1l-0.6,2.4l-3.8-1.6l-1.4,2l-4.6-1.5l-0.6,2l-3.5-1.8l-36.7,1.3l12.1-4.4l0.8-3.8l3.2,2.2
				l1.5-3.6l2.5,1.6l1.7-4.2l3.2,2.8l1.2-4.9c0,0,2.8,2.1,3.1,1.9c0.3-0.2,1.8-4.6,1.8-4.6l3.3,2.5l1.9-5.7l3.1,2.4l1.4-4.9l3.6,2
				l1.7-5.7l3.6,2.4l1.6-5.7l3.6,2.1l2-5.3l3.2,1.9l0.5-4.5l4.1,0.9l0.2-5.2l3.5,0.6l-0.7-4.8l4.1,0.1l-1.6-4.9l3.8-0.6l-2.1-4.7
				l3.6-0.4l-2.8-5l3.9-1l-2.8-4.2l2.5-1.6l-2.5-2.6c0,0-43.9,38.5-96.7,54.4c1.2,1.5,2.3,3.2,3.4,4.9c5.1,8,8.2,16.1,8.7,21.9
				l4.4-0.2c0,0,48.4,5.1,68.1-3.1c19.8-8.2,31.7-13.6,44-38.8L569.9,530.9z"/>
			<path class="st1" d="M439.6,544.5c7.7-14.3,28.8-52.8,35.9-60.6c8.7-9.7,20.2-23.2,55.6-22.7l-0.9-1.4l-2.5-0.1l-1.7-2.2l-2.9,1
				l-1.6-2.1l-3.2,0.7l-2.1-2.5l-2.8,1l-2.9-1.6l-1.8,1.2l-3.6-1l-1.5,1.6l-3.6-1.6l-1.4,2.2l-4.3-0.8l0.5,2.1l-5.3,0.2l0.2,2.2
				l-4.7-0.2l0.2,2.1l-4.6,0.8l-0.1,1.7l-4,1.5l-0.1,2.1l-4.5,1l0.3,2.5l-4.1,1.9l0.3,2.6l-4.5,1.3l0.8,2.1l-4,2l0.8,2.3l-3.7,2.3
				l1,2.7l-3.1,1.5l-26.3,45.3C432.6,537.5,436.1,540.5,439.6,544.5z"/>
			<path class="st1" d="M442.6,548.2c-1.3,0.4-2.6,0.8-3.9,1.1c1.4,1.7,2.8,3.6,4.2,5.7c5.2,8.2,7.8,16.3,6.6,20.1l5.3-0.2
				c-0.5-5.9-3.6-13.9-8.7-21.9C444.9,551.3,443.8,549.7,442.6,548.2z"/>
			<path class="st1" d="M430.5,562.9c-4.2-6.6-6.6-13.1-6.8-17.4l-1.8,3l0,0.2l14.1,24.4c0.8,0.9,1.6,1.6,2.4,2.4l3.2-0.1
				C438.2,573,434.1,568.6,430.5,562.9z"/>
			<path class="st1" d="M437.7,548.1c0.5-0.9,1.1-2.1,1.9-3.6c-3.5-4-7-7-10.2-8.8l-2.8,4.9C429.3,540.4,433.5,543.3,437.7,548.1z"
				/>
			<path class="st1" d="M437.7,548.1c-4.2-4.8-8.4-7.7-11.1-7.5l-2.9,5c0.2,4.3,2.6,10.8,6.8,17.4c3.6,5.6,7.7,10.1,11.2,12.5
				l7.7-0.3c1.2-3.8-1.3-11.9-6.6-20.1c-1.3-2.1-2.7-4-4.2-5.7c-0.7,0.2-1.3,0.4-2,0.5C436.7,549.8,437.1,549.2,437.7,548.1z"/>
			<path class="st1" d="M450.4,583.9L450.4,583.9C450.4,583.9,450.4,583.9,450.4,583.9L450.4,583.9z"/>
			<path class="st1" d="M426.9,565.5c-5.8-9.1-8.8-18.2-8.3-23.8c-0.1-1.9,0.2-3.6,0.7-4.8l0,0c-0.1,0.2-4.4,7.3-8.4,13.6
				c2.6-0.3,4.1-0.6,4.1-0.6l5.5,35.1l28.5-0.9c-0.7,0-1.4-0.2-2.2-0.4C441.4,582.8,433.4,575.8,426.9,565.5z"/>
			<path class="st1" d="M422.3,550.7l-0.3-1.9l-0.1-0.1l0-0.1l-0.9-5l-0.7-2.9C420.3,543.5,420.9,546.9,422.3,550.7z"/>
			<path class="st1" d="M428.6,563.5c2.1,3.3,4.4,6.3,6.7,8.8l-9.8-14.2C426.4,559.9,427.5,561.7,428.6,563.5z"/>
			<path class="st1" d="M438.6,575.6c2.4,2.2,4.8,3.9,6.9,4.9L438.6,575.6z"/>
			<path class="st1" d="M418.6,541.7c0.1-1.4,0.5-2.6,1.1-3.5l-0.3-1.4C418.8,538.2,418.5,539.8,418.6,541.7z"/>
			<path class="st1" d="M446.9,583.5c0.8,0.3,1.5,0.4,2.2,0.4l1.2,0c0,0,0,0,0.1,0l-0.9-0.6C448.7,583.6,447.9,583.7,446.9,583.5z"
				/>
			<polygon class="st1" points="421.9,548.8 421.9,548.6 421.9,548.7 			"/>
			<path class="st1" d="M411,550.5c-2.1,0.2-4.8,0.4-8.1,0.4c-0.7,1.6-1.2,3.3-1.4,5.1c-0.5,3.6,0.2,7.3,1.6,10.6
				c-1.2-1.5-2.4-3-3.3-4.8c-1.8-3.4-2.6-7.3-2.4-11.2c-2.9-0.2-6-0.7-9.2-1.4c-0.5,1.3-0.8,2.7-1,4c-0.5,3.6,0.2,7.3,1.6,10.6
				c-1.2-1.5-2.4-3-3.3-4.8c-1.8-3.4-2.6-7.3-2.4-11.2c-3.6-1.1-7.3-2.5-10.9-4.4c-0.5,1.3-0.8,2.7-1,4.1c-0.5,3.6,0.2,7.3,1.6,10.6
				c-1.2-1.5-2.4-3-3.3-4.8c-2-3.9-2.8-8.4-2.3-12.8c-3.4-2.2-6.8-4.9-10-8.1c-0.2,0.7-0.3,1.4-0.4,2.1c-0.5,3.6,0.2,7.3,1.6,10.6
				c-1.2-1.5-2.4-3-3.3-4.8c-2-3.9-2.8-8.5-2.3-12.9c-10.1-12.4-18.1-31.2-20.5-59.6l-25.9,13.5c0,0,33.4,103.2,114.2,103.4
				l-15.7-24.6C404.9,560.3,407.8,555.6,411,550.5z"/>
			<path class="st1" d="M411,550.5c-3.2,5.2-6.1,9.8-6.1,9.8l15.7,24.6l-5.5-35.1C415,549.9,413.5,550.2,411,550.5z"/>
		</g>
	</g>
	<polyline class="st2" points="501,415.3 479.3,449.3 513.3,424.1 	"/>
	<g>
		<path class="st2" d="M448.1,577.1C448.1,577.1,448.1,577.1,448.1,577.1c0.5-0.3,0.9-0.9,1.2-1.6l-3.7,0.1
			C446.4,576.3,447.3,576.8,448.1,577.1z"/>
		<path class="st2" d="M203.4,434.1h-4L164.6,492c-1,1.7-1.3,3.2-0.8,4.4c0.5,1.3,1.6,1.9,3.3,1.9h2.7c-1.1-0.2-1.8-0.8-2.1-1.8
			c-0.5-1.3-0.2-2.7,0.8-4.4L203.4,434.1z"/>
		<path class="st2" d="M180,434h2.8c-1-0.2-1.7-0.8-2-1.7c-0.5-1.2-0.2-2.6,0.7-4.2l7.5-12.5l-3.9-0.1l-7.5,12.5
			c-1,1.6-1.2,3-0.7,4.2C177.4,433.4,178.4,434,180,434z"/>
		<path class="st2" d="M222.3,489.2c-1.7,2.9-2.1,5.4-1.2,7.6c0.7,1.6,2.3,3.6,6.2,3.6h2.4c-2.8-0.4-4.1-2.1-4.7-3.5
			c-0.9-2.2-0.5-4.8,1.2-7.6l33.5-55.7l-3.9-0.1L222.3,489.2z"/>
		<polygon class="st2" points="353.3,500.4 393.4,433.6 389.5,433.4 349.3,500.4 		"/>
		<path class="st2" d="M447.3,462.2l13.7-22.8c1-1.6,2.4-3,4.2-4.2c1.8-1.2,3.7-1.7,5.4-1.7l-3.9-0.1c-1.8,0-3.6,0.6-5.4,1.7
			c-1.8,1.1-3.2,2.5-4.2,4.2l-11.6,19.3l1.8,7.6L447.3,462.2z"/>
		<path class="st2" d="M382,500.4l36.4-60.6c1-1.7,2.5-3.2,4.4-4.4c2-1.2,3.9-1.9,5.8-1.9l-3.9-0.1c-1.9,0-3.9,0.6-5.8,1.9
			c-1.9,1.2-3.4,2.7-4.4,4.4l-36.5,60.7H382z"/>
		<polygon class="st2" points="419.5,475.1 425.2,500.4 429,500.4 422.3,470.4 		"/>
		<polygon class="st2" points="535.5,555.8 539.3,556.3 540.2,553.6 536.4,553.3 		"/>
		<path class="st2" d="M459.5,490.7l3.1-1.5l-1-2.7l3.7-2.3l-0.8-2.3l4-2l-0.8-2.1l4.5-1.3l-0.3-2.6l4.1-1.9l-0.3-2.5l4.5-1l0.1-2.1
			l4-1.5l0.1-1.7l4.6-0.8l-0.2-2l-3.9-0.1l0.2,2.1l-4.6,0.8l-0.1,1.7l-4,1.5l-0.1,2.1l-4.5,1l0.3,2.5l-4.1,1.9l0.3,2.6l-4.5,1.3
			l0.8,2.1l-4,2l0.8,2.3l-3.7,2.3l1,2.7l-3.1,1.5l-25.6,44c1,0.3,2.1,0.7,3.2,1.4L459.5,490.7z"/>
		<polygon class="st2" points="489.5,460.4 493.4,460.5 493.2,458.3 498.5,458.1 498.2,456.6 494.1,455.8 494.6,457.9 489.3,458.1 
					"/>
		<path class="st2" d="M446.4,548.4c46-13.9,85.3-44.9,94.6-52.6l-1.8-1.9c0,0-42.2,37-93.6,53.4C445.9,547.7,446.1,548,446.4,548.4
			z"/>
		<polygon class="st2" points="569.8,531 568.9,532.2 566.8,531.8 566.5,533.6 564.7,532.8 563.5,535.6 562.1,535.1 561.1,537.7 
			559.3,537.3 558.1,540.1 556.1,539.5 554.9,542.9 552.4,542.3 551.3,545.5 549.1,545.3 548.3,548.4 544.7,548.3 544.4,551.2 
			540.6,551.2 540.3,553.4 544.2,553.7 544.5,551.3 548.3,551.3 548.6,548.4 552.2,548.5 553,545.4 555.2,545.6 556.3,542.4 
			558.8,543 559.9,539.6 562,540.2 563.2,537.4 565,537.8 566,535.3 567.4,535.7 568.6,532.9 570.4,533.7 570.6,532.3 		"/>
		<path class="st2" d="M283.4,497.7c-0.6-1.6-0.4-3.4,0.8-5.3l35.3-58.8l-3.9-0.1l-35.3,58.8c-1.2,1.9-1.4,3.7-0.8,5.3
			c0.4,1,1.5,2.8,4.5,2.8h2.7C284.6,500,283.7,498.6,283.4,497.7z"/>
		<path class="st2" d="M391.8,550.1c-1.2-0.2-2.4-0.4-3.7-0.7c-0.4,1.1-0.7,2.3-0.9,3.5c0.4,2.3,1.1,4.5,2.2,6.5
			c0.9,1.7,2.1,3.3,3.3,4.8c-1.4-3.3-2.1-7.1-1.6-10.6C391.1,552.4,391.4,551.2,391.8,550.1z"/>
		<path class="st2" d="M375.5,545.3c-1.1-0.5-2.3-1-3.4-1.6c-0.4,1.1-0.7,2.3-0.9,3.6c0.4,2.3,1.1,4.5,2.2,6.5
			c0.9,1.7,2.1,3.3,3.3,4.8c-1.4-3.3-2.1-7.1-1.6-10.6C375,547,375.2,546.1,375.5,545.3z"/>
		<polygon class="st2" points="526.3,559.1 530,560 530.4,557.9 526.7,557.1 		"/>
		<polygon class="st2" points="358.1,433.4 331.5,450.9 328.8,455.3 362,433.6 		"/>
		<path class="st2" d="M357.1,532.6c-0.1,0.5-0.2,1.1-0.3,1.6c0.4,2.3,1.1,4.5,2.2,6.5c0.9,1.7,2.1,3.3,3.3,4.8
			c-1.3-3.1-2-6.4-1.7-9.7C359.3,534.8,358.2,533.7,357.1,532.6z"/>
		<polygon class="st2" points="531,557.3 534.7,558.1 535.2,556.2 531.4,555.6 		"/>
		<path class="st2" d="M449.3,580.7c-2-0.9-4.1-2.4-6.3-4.3c-0.2-0.2-0.4-0.4-0.6-0.6c0,0,0,0-0.1-0.1c-0.1-0.1-0.2-0.2-0.3-0.2
			c-0.7-0.7-1.4-1.4-2.2-2.1c-0.3-0.3-0.5-0.6-0.8-0.8c-2.3-2.5-4.6-5.5-6.7-8.8c-1.1-1.8-2.2-3.6-3.1-5.3c-1.3-2.5-2.4-5-3.2-7.4
			c-0.8-2.3-1.4-4.4-1.7-6.4c0-0.4-0.2-2.4-0.3-3c0-0.2,0-0.4,0-0.6c0-1.5,0.3-2.8,0.7-3.9c0,0,0,0-0.1,0c-0.5,0.3-0.9,0.8-1.3,1.3
			c-0.6,0.9-0.9,2.1-1.1,3.5c-0.5,5.6,2.5,14.7,8.3,23.8c2.3,3.5,4.7,6.7,7.2,9.3c4.1,4.4,8.2,7.4,11.5,8.4c0,0,0.1,0,0.1,0
			c0.3-0.1,0.6-0.2,0.8-0.4c0.6-0.4,1-0.9,1.4-1.5c-0.2,0-0.4-0.1-0.6-0.1C450.5,581.2,449.9,581,449.3,580.7z"/>
		<path class="st2" d="M311.2,484.6l-2.4,3.9c9.1,23,43.4,95.9,111,96.5C350.2,581.5,317.1,500.8,311.2,484.6z"/>
		<path class="st2" d="M406.7,551.2l0.1-0.3c-1.2,0.1-2.5,0.1-4,0.1c-0.7,1.5-1.1,3-1.4,4.6c0.4,2.3,1.1,4.5,2.2,6.5
			c0.9,1.7,2.1,3.3,3.3,4.8c-1.4-3.3-2.1-7.1-1.6-10.6c0.1-1.1,0.4-2.1,0.7-3.2l0,0l0.1-0.2C406.3,552.3,406.5,551.7,406.7,551.2z"
			/>
		<path class="st2" d="M423.2,537.1c0.4-1,1-1.7,1.8-2.2c0.3-0.2,0.7-0.4,1.1-0.5c-1.9-0.6-3.6-0.5-5,0.4c-0.8,0.5-1.4,1.3-1.8,2.2
			l0,0c-0.1,0.2-4.4,7.3-8.4,13.6c0,0,0,0,0,0l-0.3,0.4c1.6-0.1,3-0.2,4.2-0.3c1.2-1.9,2.4-3.9,3.5-5.7v0l0-0.1
			c0.1-0.1,0.1-0.2,0.2-0.3c0.6-1,1.2-1.9,1.7-2.8C421.9,539.2,423.1,537.2,423.2,537.1L423.2,537.1z"/>
	</g>
	<circle class="st0" cx="347.8" cy="475.6" r="5.2"/>
	<path class="st0" d="M566.6,564.2c0,0-18,28.7-80.1,32.4l-15.9-10.1l25.7-2.5"/>
	<polyline class="st0" points="360.1,514 414.1,514 403,536.8 426.1,516.7 415,500.4 406.9,504.7 381.7,510.8 	"/>
	<linearGradient id="SVGID_1_" gradientUnits="userSpaceOnUse" x1="330.1492" y1="450.0176" x2="308.3459" y2="521.9687">
		<stop  offset="0" style="stop-color:#1F3343;stop-opacity:0"/>
		<stop  offset="1" style="stop-color:#1F3343"/>
	</linearGradient>
	<polygon class="st3" points="185.1,415.4 447.5,500.1 493.3,424.7 259.7,428 264.6,411.3 	"/>
	<g>
		<g>
			<g>
				<path class="st0" d="M591,556.8c-0.5-0.3-0.7-0.7-0.5-1.4c0.2-0.7,0.6-1.3,1.3-2l3.8-3.5c0.5,0.5,1.1,1,1.8,1.4
					c0.7,0.4,1.6,0.7,2.5,0.9c1,0.2,1.9,0.3,3,0.3c3,0,5-0.7,5.9-2.2c0.3-0.5,0.4-0.9,0.1-1.3c-0.2-0.4-0.6-0.7-1.2-0.9
					c-0.6-0.2-1.3-0.4-2.1-0.6c-0.8-0.2-1.6-0.4-2.5-0.6c-0.8-0.2-1.6-0.5-2.3-1c-0.7-0.4-1.2-0.9-1.6-1.5c-0.4-0.5-0.5-1.3-0.4-2.2
					c0.1-0.9,0.6-2,1.4-3.2c1.6-2.6,4-4.7,7.1-6.4c3.1-1.7,6.7-2.5,10.6-2.5c3.9,0,6.7,0.8,8.4,2.4l-3.7,3.5c-0.6,0.6-1.3,1-2,1.2
					c-0.8,0.2-1.3,0.3-1.8,0c-1.5-0.8-3.1-1.1-4.8-1.1c-3,0-4.9,0.8-6,2.4c-0.4,0.7-0.4,1.2,0.1,1.6c0.5,0.4,1.3,0.7,2.3,0.9
					c1,0.2,2.1,0.5,3.2,0.8c1.1,0.4,2.1,0.8,2.9,1.3c0.8,0.5,1.3,1.3,1.3,2.4c0.1,1.1-0.4,2.5-1.4,4c-1.6,2.6-4,4.7-7.1,6.4
					c-3.1,1.7-6.7,2.5-10.6,2.5C595.7,558.6,593,558,591,556.8z"/>
				<path class="st0" d="M599.2,563c-4.2,0-7.6-0.8-10.3-2.4c-2.2-1.2-3.2-3.7-2.6-6.3c0.4-1.5,1.3-2.9,2.6-4.2l5.9-5.5
					c-0.2-0.9-0.3-1.9-0.1-3.1c0.2-1.6,0.9-3.2,2-5c2-3.2,5-5.9,8.8-7.9c3.8-2,8-3,12.7-3c5.1,0,8.8,1.2,11.4,3.6l3.4,3.2l-7,6.8
					c-1.1,1-2.3,1.8-3.7,2.2c-0.3,0.1-0.5,0.2-0.8,0.2c0.7,1.1,1.1,2.4,1.2,3.8c0.1,2.1-0.5,4.3-2,6.6c-2,3.2-5,5.9-8.8,7.9
					C608.1,562,603.8,563,599.2,563z M594.7,556.8L594.7,556.8L594.7,556.8z M612.3,546c0.2,0.2,0.4,0.5,0.5,0.7
					c0.1,0.2,0.2,0.4,0.3,0.6c0,0,0,0,0,0c0.2-0.4,0.4-0.6,0.5-0.9c-0.3-0.1-0.7-0.3-1.1-0.4C612.5,546,612.4,546,612.3,546z
					 M613.8,545.9L613.8,545.9L613.8,545.9z M603.6,542.3c0.2,0.1,0.5,0.2,0.8,0.3c0.1,0,0.3,0.1,0.4,0.1c-0.3-0.4-0.5-0.8-0.7-1.2
					C603.8,541.8,603.7,542,603.6,542.3z"/>
			</g>
			<g>
				<path class="st0" d="M640.5,552l-3.7,6h-18.5c-1,0-1.6-0.3-1.9-1c-0.3-0.7-0.1-1.5,0.5-2.5l14.9-23.9h21.5l-3.7,6H631l3.4,2.3
					l-1.4,2.3h12.2l-3.6,5.8h-12.2l-3.1,5H640.5z"/>
				<path class="st0" d="M639.2,562.4h-21c-2.8,0-5-1.4-6-3.8c-0.6-1.4-0.9-3.7,0.9-6.5l9.8-15.7l-6.1-4.3h8.8l3.7-6h32l-9.3,14.8
					h-1.6l-4.1,6.6h2.1L639.2,562.4z M620.6,557L620.6,557L620.6,557z"/>
			</g>
			<g>
				<path class="st0" d="M656.7,558l-0.4-7.3h-4.2l-3.1,4.9c-0.4,0.7-1,1.2-1.8,1.7c-0.8,0.5-1.5,0.7-2.2,0.7h-5.3l17.1-27.4h12.6
					c3.7,0,6.1,0.9,7.2,2.7c1.1,1.8,0.6,4.3-1.3,7.4c-2.5,4.1-6.1,6.9-10.8,8.7l0.5,8.6H656.7z M667.5,540.7c0.8-1.3,1-2.3,0.6-3
					c-0.4-0.7-1.4-1-3-1h-9.1l3.4,2.2l-3.6,5.8h4.3c1.6,0,3-0.3,4.3-1C665.6,543,666.7,542,667.5,540.7z"/>
				<path class="st0" d="M669.8,562.4h-17.2l-0.2-3.8c-0.7,1-1.7,1.8-2.8,2.5c-1.5,0.9-3,1.3-4.4,1.3h-13.3l16.1-25.8l-6.9-4.4h9.6
					l3.8-6.1h15c5.4,0,9.1,1.6,11,4.9c2,3.3,1.5,7.4-1.4,12c-2.5,4-5.8,7-10,9.1L669.8,562.4z M671.8,535.2c0.1,0.1,0.2,0.3,0.2,0.4
					c0.2,0.3,0.3,0.7,0.4,1.1c0.3-0.6,0.3-1,0.3-1.2C672.7,535.5,672.4,535.3,671.8,535.2z"/>
			</g>
			<g>
				<path class="st0" d="M708.1,530.6h5.5L684.7,558h-7.6l5.4-27.4h6.4c0.6,0,1,0.2,1.3,0.5c0.3,0.3,0.4,0.8,0.2,1.3l-2.7,13.3
					l-6,7.9l22.1-21c0.7-0.6,1.4-1.1,2.1-1.5C706.7,530.8,707.5,530.6,708.1,530.6z"/>
				<path class="st0" d="M686.5,562.4h-14.8l7.2-36.3h10.1c1.8,0,3.5,0.7,4.6,1.9c1.3,1.4,1.7,3.2,1.3,5.2l-0.5,2.2l6.4-6.1
					c1-1,2.1-1.7,3.4-2.3c1.3-0.6,2.7-0.9,4-0.9h16.6L686.5,562.4z"/>
			</g>
			<g>
				<path class="st0" d="M699.5,558l17.1-27.4h7.8L707.3,558H699.5z"/>
				<polygon class="st0" points="709.7,562.4 691.5,562.4 714.2,526.2 732.4,526.2 				"/>
			</g>
			<g>
				<path class="st0" d="M725.1,558.6c-4.4,0-7.2-1.3-8.3-4c-1.2-2.7-0.5-6.1,2.1-10.2c2.6-4.2,6.2-7.6,10.7-10.2
					c4.5-2.7,9-4,13.4-4c5.1,0,7.9,1.7,8.6,5.1l-5.6,3.2c-0.6,0.3-1.1,0.5-1.6,0.5c-0.5,0-0.8-0.2-1-0.5c-0.7-1.3-2-1.9-4-1.9
					c-1.5,0-3,0.3-4.6,1c-1.6,0.6-3,1.6-4.4,2.7c-1.4,1.2-2.6,2.6-3.5,4.1c-1.5,2.3-1.9,4.2-1.4,5.7c0.5,1.4,1.9,2.2,4.2,2.2
					c2.5,0,5.3-1.1,8.4-3.2l1.5,3c0.2,0.4,0.1,0.9-0.3,1.5c-0.4,0.6-0.9,1.1-1.6,1.5C733.4,557.4,729.2,558.6,725.1,558.6z"/>
				<path class="st0" d="M725.1,563c-7.8,0-11.1-3.6-12.4-6.7c-1.8-4.1-1-8.9,2.4-14.4c3-4.7,7.1-8.7,12.2-11.7
					c5.2-3.1,10.4-4.6,15.6-4.6c9.8,0,12.3,5.5,12.9,8.8l0.6,3l-8.2,4.8c-1.3,0.8-2.6,1.1-4,1.1c-1.9-0.1-3.5-0.9-4.5-2.4
					c-0.1,0-0.2,0-0.4,0c-0.9,0-1.9,0.2-2.9,0.6c-1.1,0.5-2.2,1.1-3.3,2c-1,0.9-1.9,1.9-2.7,3.1c-0.3,0.4-0.5,0.8-0.6,1.1
					c1.5-0.1,3.4-0.9,5.5-2.4l4.2-2.9l3.9,7.7c0.5,1,1,3.1-0.6,5.7c-0.8,1.2-1.8,2.2-3.1,3C735,561.6,730,563,725.1,563z
					 M720.8,550.4c-0.3,1-0.3,1.8-0.1,2.4c0.3,0.6,1,0.9,1.8,1.1c-0.8-0.9-1.3-1.9-1.5-2.5C721,551.1,720.9,550.8,720.8,550.4z
					 M739.4,540.6C739.4,540.6,739.4,540.6,739.4,540.6C739.4,540.6,739.4,540.6,739.4,540.6z"/>
			</g>
			<g>
				<path class="st0" d="M766,552l-3.7,6h-18.5c-1,0-1.6-0.3-1.9-1c-0.3-0.7-0.1-1.5,0.5-2.5l14.9-23.9h21.5l-3.7,6h-18.7l3.4,2.3
					l-1.4,2.3h12.2L767,547h-12.2l-3.1,5H766z"/>
				<path class="st0" d="M764.7,562.4h-21c-2.8,0-5-1.4-6-3.8c-0.6-1.4-0.9-3.7,0.9-6.5l9.8-15.7l-6.1-4.3h8.8l3.7-6h32l-9.3,14.8
					H776l-4.1,6.6h2.1L764.7,562.4z"/>
			</g>
			<g>
				<path class="st0" d="M767.8,556.8c-0.5-0.3-0.7-0.7-0.5-1.4c0.2-0.7,0.6-1.3,1.3-2l3.8-3.5c0.5,0.5,1.1,1,1.8,1.4
					c0.7,0.4,1.6,0.7,2.5,0.9c1,0.2,1.9,0.3,3,0.3c3,0,5-0.7,5.9-2.2c0.3-0.5,0.4-0.9,0.1-1.3c-0.2-0.4-0.6-0.7-1.2-0.9
					c-0.6-0.2-1.3-0.4-2.1-0.6c-0.8-0.2-1.6-0.4-2.5-0.6c-0.8-0.2-1.6-0.5-2.3-1c-0.7-0.4-1.2-0.9-1.6-1.5c-0.4-0.5-0.5-1.3-0.4-2.2
					c0.1-0.9,0.6-2,1.4-3.2c1.6-2.6,4-4.7,7.1-6.4c3.1-1.7,6.7-2.5,10.6-2.5c3.9,0,6.7,0.8,8.4,2.4l-3.7,3.5c-0.6,0.6-1.3,1-2,1.2
					c-0.8,0.2-1.3,0.3-1.8,0c-1.5-0.8-3.1-1.1-4.8-1.1c-3,0-4.9,0.8-6,2.4c-0.4,0.7-0.4,1.2,0.1,1.6c0.5,0.4,1.3,0.7,2.3,0.9
					c1,0.2,2.1,0.5,3.2,0.8c1.1,0.4,2.1,0.8,2.9,1.3c0.8,0.5,1.3,1.3,1.3,2.4c0.1,1.1-0.4,2.5-1.4,4c-1.6,2.6-4,4.7-7.1,6.4
					c-3.1,1.7-6.7,2.5-10.6,2.5C772.5,558.6,769.8,558,767.8,556.8z"/>
				<path class="st0" d="M776,563c-4.2,0-7.7-0.8-10.3-2.4c-2.2-1.2-3.2-3.7-2.6-6.3c0.4-1.5,1.3-2.9,2.6-4.2l5.9-5.5
					c-0.2-0.9-0.3-1.9-0.1-3.1c0.2-1.6,0.9-3.2,2-5c2-3.2,5-5.9,8.8-7.9c3.8-2,8-3,12.7-3c5.1,0,8.8,1.2,11.4,3.6l3.4,3.2l-7,6.8
					c-1.1,1-2.3,1.8-3.7,2.2c-0.3,0.1-0.5,0.2-0.8,0.2c0.7,1.1,1.1,2.4,1.2,3.8c0.1,2.1-0.5,4.3-2,6.6c-2,3.2-5,5.9-8.8,7.9
					C784.9,562,780.6,563,776,563z M771.5,556.8L771.5,556.8L771.5,556.8z M789.1,546c0.2,0.2,0.4,0.5,0.5,0.7
					c0.1,0.2,0.2,0.4,0.3,0.6c0,0,0,0,0,0c0.2-0.4,0.4-0.6,0.5-0.9c-0.3-0.1-0.7-0.3-1.1-0.4C789.3,546,789.2,546,789.1,546z
					 M790.6,545.9L790.6,545.9L790.6,545.9z M780.4,542.3c0.2,0.1,0.5,0.2,0.8,0.3c0.1,0,0.3,0.1,0.4,0.1c-0.3-0.4-0.5-0.8-0.7-1.2
					C780.6,541.8,780.5,542,780.4,542.3z"/>
			</g>
			<g>
				<path class="st0" d="M837.7,554l-6.9,4.6l-1.4-2.7c-3.8,1.9-7.5,2.8-11,2.8c-3.2,0-5.3-0.7-6.5-2.2c-1.1-1.5-1-3.3,0.4-5.5
					c1.1-1.7,2.5-3.2,4.2-4.5c1.7-1.3,3.9-2.5,6.6-3.6c-0.6-1.8-0.4-3.6,0.8-5.5c0.9-1.4,2-2.6,3.4-3.7c1.4-1.1,3-1.9,4.8-2.5
					c1.8-0.6,3.6-0.9,5.4-0.9c2.5,0,4.2,0.6,5,1.8c0.8,1.2,0.6,2.8-0.6,4.8c-0.9,1.4-2.1,2.7-3.6,3.8c-1.5,1.1-3.5,2.2-5.8,3.1
					l1.8,3.5c1.2-1.1,2.5-2.4,3.7-3.9l4.8,1.8c-2,2.3-4.1,4.4-6.4,6.2L837.7,554z M822.6,553c1.5,0,3.2-0.4,4.9-1.1l-2.6-5.2
					c-2.3,1-3.9,2.2-4.7,3.5c-0.5,0.8-0.6,1.5-0.1,2C820.5,552.7,821.3,553,822.6,553z M834.6,535.2c-0.8,0-1.5,0.2-2.1,0.6
					c-0.7,0.4-1.2,0.9-1.6,1.5c-0.3,0.5-0.5,1-0.5,1.6c0,0.6,0.1,1.1,0.2,1.4c0.2,0.4,0.4,0.9,0.7,1.4c0.3,0.6,0.5,0.9,0.6,1.1
					l0.3-3.3c1.7-0.8,2.9-1.6,3.4-2.4c0.4-0.6,0.4-1,0.3-1.3C835.7,535.3,835.3,535.2,834.6,535.2z"/>
				<path class="st0" d="M829.2,565.1l-1.8-3.5c-3,1-6,1.6-8.9,1.6c-4.6,0-7.9-1.3-9.9-3.9c-1.1-1.4-3.3-5.2,0.1-10.6
					c1.4-2.2,3.1-4.1,5.3-5.7c1.3-1,2.8-1.9,4.5-2.7c0.1-1.6,0.6-3.3,1.8-5.2c1.1-1.8,2.7-3.5,4.5-4.9c1.8-1.4,3.9-2.4,6.1-3.2
					c2.2-0.7,4.5-1.1,6.8-1.1c4.1,0,7,1.3,8.7,3.7c1.1,1.6,2.4,4.9-0.6,9.6c-0.4,0.6-0.8,1.2-1.3,1.8l5.8,2.2l-4,4.8
					c-1.4,1.6-2.8,3.1-4.3,4.5l1.5,3l-8.8,5.9l-0.1,0.7l-0.2-0.5L829.2,565.1z M815.8,553.9c0,0,0.1,0,0.1,0c0-0.1-0.1-0.1-0.1-0.2
					C815.9,553.8,815.8,553.9,815.8,553.9z"/>
			</g>
			<g>
				<path class="st0" d="M595.9,566.1c3.7,0,6.1,0.9,7.2,2.7c1.1,1.8,0.6,4.3-1.3,7.4c-2,3.1-4.6,5.6-7.9,7.4
					c-3.3,1.8-6.9,2.7-10.6,2.7h-4.8l-2.7,4.4c-0.5,0.8-1.2,1.4-2.1,2c-0.9,0.5-1.7,0.8-2.5,0.8h-4.9l17.1-27.4H595.9z M586.6,580.3
					c1.6,0,3-0.3,4.3-1c1.2-0.7,2.3-1.7,3.1-3c0.8-1.3,1-2.3,0.6-3c-0.4-0.7-1.4-1-3-1h-9.2l3.7,2l-3.7,6H586.6z"/>
				<path class="st0" d="M571.2,598h-12.9l15.8-25.3l3-4.8l3.8-6.1h15c5.4,0,9.1,1.6,11,4.9c2,3.3,1.5,7.4-1.4,12
					c-2.4,3.8-5.6,6.8-9.6,8.9c-4,2.2-8.2,3.3-12.7,3.3h-2.3l-1.4,2.3c-0.8,1.3-2,2.5-3.5,3.4C574.4,597.5,572.8,598,571.2,598z
					 M598.2,570.8c0.1,0.1,0.2,0.3,0.2,0.4c0.2,0.3,0.3,0.7,0.4,1.1c0.3-0.6,0.3-1,0.3-1.2C599.1,571,598.8,570.9,598.2,570.8z"/>
			</g>
			<g>
				<path class="st0" d="M611.1,566.1h5.3c0.7,0,1.1,0.2,1.3,0.7c0.2,0.5,0.1,1-0.4,1.7l-10,16.1l-6.1,2.8h15.5c0.5,0,0.9,0.2,1,0.6
					c0.1,0.4,0.1,0.9-0.3,1.4l-2.6,4.1H594L611.1,566.1z"/>
				<path class="st0" d="M617.3,598H586l3.8-6.1h-9l12.6-5.7l15.2-24.4h7.8c2.5,0,4.5,1.3,5.4,3.4c0.4,1.1,0.9,3.2-0.7,5.8
					l-7.6,12.1h3.1c2.4,0,4.4,1.3,5.2,3.5c0.4,1,0.8,3-0.7,5.3L617.3,598z"/>
			</g>
			<g>
				<path class="st0" d="M630.5,594.1c-2.7,0-4.7-0.5-6.1-1.5c-1.3-1-1.9-2.4-1.7-4.4c0.2-1.9,1.1-4.2,2.8-6.9l9.5-15.2h5
					c0.7,0,1.2,0.3,1.4,0.8c0.2,0.5,0.1,1.2-0.4,1.9l-7.6,12.2c-2.7,4.4-2.4,6.6,1.1,6.6c3.5,0,6.6-2.2,9.3-6.6l9.3-15h4.9
					c0.8,0,1.2,0.3,1.4,0.8c0.2,0.5,0.1,1.2-0.4,1.9l-7.8,12.5c-2.5,4.1-5.6,7.2-9.3,9.4C638.4,593,634.5,594.1,630.5,594.1z"/>
				<path class="st0" d="M630.5,598.5c-3.7,0-6.6-0.8-8.7-2.3c-2.6-1.9-3.8-4.9-3.4-8.3c0.3-2.6,1.4-5.5,3.5-8.8l10.8-17.3h7.5
					c2.5,0,4.6,1.3,5.5,3.5c0.4,1,0.8,2.9-0.3,5.2l5.5-8.8h7.3c2.6,0,4.7,1.4,5.6,3.7c0.5,1.3,0.7,3.4-0.8,5.8l-7.8,12.5
					c-2.9,4.6-6.5,8.3-10.7,10.9C640,597.2,635.3,598.5,630.5,598.5z M627.1,589.1c0.2,0.1,0.6,0.3,1.4,0.4
					c-0.2-0.3-0.4-0.6-0.5-0.8c-0.3-0.5-0.4-0.9-0.6-1.4c-0.2,0.6-0.3,1.1-0.3,1.4C627.1,588.9,627.1,589.1,627.1,589.1z"/>
			</g>
			<g>
				<path class="st0" d="M673.3,593.6c-0.5,0-0.8-0.2-1-0.5c-0.1-0.4-0.1-0.8,0.3-1.3l7.8-12.7l-14.4,11.9h-3.4l0.1-11.5l-7.8,12.5
					c-0.3,0.5-0.7,0.9-1.2,1.2c-0.5,0.3-1,0.5-1.4,0.5h-5.5l17.1-27.4h5.2c0.8,0,1.2,0.3,1.2,1l-0.3,19.2l2.9-6.7l15.1-12.4
					c0.9-0.7,1.8-1.1,2.6-1.1h5.1l-17,27.4H673.3z"/>
				<path class="st0" d="M665.4,595.3h-7.3l0-0.3c-0.6,0.7-1.3,1.4-2.2,1.9c-1.2,0.7-2.5,1.1-3.7,1.1h-13.5l22.7-36.3h7.6
					c3.2,0,5.6,2.2,5.6,5.3l0,0.1l-0.1,5.4l10.6-8.7c1.7-1.4,3.5-2.1,5.4-2.1h4l3.6-3l-1.8,3h7.3L681.1,598h-7.7
					c-1.2,0-2.3-0.4-3.2-1L665.4,595.3z M676.4,594L676.4,594C676.4,594,676.4,594,676.4,594z"/>
			</g>
			<g>
				<path class="st0" d="M711.7,579.3c1.2,0.6,1.9,1.4,2.1,2.6c0.2,1.2-0.3,2.6-1.3,4.2c-1.5,2.4-3.6,4.2-6.4,5.6
					c-2.8,1.3-6,2-9.6,2H684c-0.6,0-1-0.2-1.2-0.7c-0.2-0.4-0.1-1,0.3-1.7l15.7-25.1h14c3.5,0,5.8,0.6,6.8,1.9c1,1.3,0.8,3-0.5,5.2
					C717.4,576,715,578,711.7,579.3z M699.4,588c2.7,0,4.6-0.9,5.8-2.8c1.2-1.9,0.4-2.8-2.3-2.8h-6.5l-3.5,5.6H699.4z M708.3,571.7
					h-10.9l4.1,2.3l-1.8,2.9h5.3c2.6,0,4.5-0.9,5.6-2.6C711.7,572.6,711,571.7,708.3,571.7z"/>
				<path class="st0" d="M696.5,598H684c-2.4,0-4.4-1.3-5.3-3.4c-0.4-1-0.9-3.2,0.7-5.7l10.3-16.5l-8.8-5.1h11.9l3.5-5.6h16.5
					c5,0,8.4,1.2,10.3,3.6c1.3,1.6,3,5.2-0.3,10.3c-1.3,2-2.8,3.7-4.8,5.1c0,0.2,0.1,0.3,0.1,0.5c0.3,2.2-0.4,4.6-1.9,7.1
					c-1.9,3.1-4.7,5.5-8.2,7.2C704.7,597.2,700.8,598,696.5,598z M703.4,586.9L703.4,586.9L703.4,586.9z M715,570.7
					c0.1,0.2,0.1,0.3,0.2,0.5c0-0.1,0.1-0.1,0.1-0.2c0-0.1,0.1-0.1,0.1-0.2C715.4,570.7,715.2,570.7,715,570.7z"/>
			</g>
			<g>
				<path class="st0" d="M710.8,593.6l17.1-27.4h7.8l-17.1,27.4H710.8z"/>
				<polygon class="st0" points="721,598 702.8,598 725.5,561.7 743.7,561.7 				"/>
			</g>
			<g>
				<path class="st0" d="M759.4,566.1h5.5l-17.1,27.4h-6.4l-2.9-14.6l-7.6,12.2c-0.3,0.4-0.6,0.8-1.1,1.2c-0.5,0.4-1,0.7-1.5,0.9
					c-0.5,0.2-1,0.3-1.4,0.3h-5.2l15.7-25.1c0.4-0.6,1-1.2,1.7-1.6c0.7-0.4,1.4-0.7,2.1-0.7h4l4.5,20.9l0.2-9.1l6.1-9.7
					c0.4-0.6,0.9-1.1,1.6-1.5C758.1,566.4,758.8,566.1,759.4,566.1z"/>
				<path class="st0" d="M747.4,598h-9.7l-1.5-7.3l-1.7,2.7c-0.5,0.8-1.2,1.6-2.1,2.3c-0.8,0.6-1.6,1.1-2.5,1.5
					c-1.1,0.5-2.1,0.7-3.2,0.7h-13.2l19.9-31.9c0.8-1.2,1.8-2.2,3.1-3c1.4-0.9,2.9-1.3,4.4-1.3h7.6l1.5,7.3l1.9-3
					c0.7-1.2,1.7-2.2,3-2.9c1.4-0.8,2.8-1.3,4.2-1.3h13.5l-19,30.4L747.4,598z M744.9,589.2h0.4l0.2-0.3l-3.9-18.3h-0.2c0,0,0,0,0,0
					c0,0-0.1,0.1-0.1,0.1L744.9,589.2z"/>
			</g>
			<g>
				<path class="st0" d="M777.9,581.7c0.2-0.3,0.5-0.6,0.8-0.9c0.3-0.3,0.6-0.5,1-0.7c0.3-0.2,0.7-0.4,1.1-0.5
					c0.4-0.1,0.7-0.2,1.1-0.2h4.5l-7.1,11.4c-2.3,1.1-4.6,2-7,2.6c-2.4,0.6-4.7,0.9-6.7,0.9c-4.4,0-7.1-1.3-8.3-4
					c-1.2-2.7-0.5-6.1,2.1-10.2c2.6-4.2,6.2-7.6,10.7-10.3c4.5-2.7,9-4,13.5-4c5.2,0,8.2,1.7,8.9,5l-4.9,2.9
					c-0.7,0.4-1.4,0.6-2.1,0.6c-0.7,0-1.1-0.2-1.5-0.5c-0.8-1-2.1-1.5-4-1.5c-1.5,0-3.1,0.3-4.7,0.9c-1.6,0.6-3.1,1.5-4.5,2.7
					c-1.4,1.2-2.6,2.6-3.6,4.1c-1.4,2.2-1.7,4-1.1,5.6c0.6,1.6,2.1,2.3,4.3,2.2c2.6-0.1,5.8-1.1,9.8-3l-3.8-0.4L777.9,581.7z"/>
				<path class="st0" d="M765.5,598.5c-7.8,0-11-3.6-12.4-6.6c-1.8-4.1-1-8.9,2.4-14.4c3-4.8,7.1-8.7,12.2-11.7
					c5.2-3,10.5-4.6,15.7-4.6c9.9,0,12.5,5.3,13.2,8.5l0.6,3.1l-3.5,2h0.5l-4.1,6.6l-2.9,4.7l-4.9,7.9l-1.1,0.6
					c-2.5,1.3-5.2,2.3-7.9,2.9C770.5,598.2,767.9,598.5,765.5,598.5z M761.4,585.4c-0.5,1.3-0.5,2.3-0.2,3c0.3,0.7,1.3,1.1,2.3,1.3
					c-0.8-0.9-1.3-1.8-1.6-2.5C761.7,586.6,761.5,586,761.4,585.4z M775.5,577.7c-0.7,0.4-1.3,0.8-2,1.4c-1,0.9-2,2-2.7,3.1
					c-0.3,0.5-0.5,0.8-0.6,1.1c0.4,0,0.9-0.1,1.6-0.2l2.3-3.7C774.6,578.7,775,578.2,775.5,577.7z"/>
			</g>
		</g>
		<g>
			<path class="st2" d="M591,557c-0.5-0.3-0.7-0.7-0.5-1.4c0.2-0.7,0.6-1.3,1.3-2l3.8-3.5c0.5,0.5,1.1,1,1.8,1.4
				c0.7,0.4,1.6,0.7,2.5,0.9c1,0.2,1.9,0.3,3,0.3c3,0,5-0.7,5.9-2.2c0.3-0.5,0.4-0.9,0.1-1.3c-0.2-0.4-0.6-0.7-1.2-0.9
				c-0.6-0.2-1.3-0.4-2.1-0.6c-0.8-0.2-1.6-0.4-2.5-0.6c-0.8-0.2-1.6-0.5-2.3-1c-0.7-0.4-1.2-0.9-1.6-1.5c-0.4-0.5-0.5-1.3-0.4-2.2
				c0.1-0.9,0.6-2,1.4-3.2c1.6-2.6,4-4.7,7.1-6.4c3.1-1.7,6.7-2.5,10.6-2.5c3.9,0,6.7,0.8,8.4,2.4l-3.7,3.5c-0.6,0.6-1.3,1-2,1.2
				c-0.8,0.2-1.3,0.3-1.8,0c-1.5-0.8-3.1-1.1-4.8-1.1c-3,0-4.9,0.8-6,2.4c-0.4,0.7-0.4,1.2,0.1,1.6c0.5,0.4,1.3,0.7,2.3,0.9
				c1,0.2,2.1,0.5,3.2,0.8c1.1,0.4,2.1,0.8,2.9,1.3c0.8,0.5,1.3,1.3,1.3,2.4c0.1,1.1-0.4,2.5-1.4,4c-1.6,2.6-4,4.7-7.1,6.4
				c-3.1,1.7-6.7,2.5-10.6,2.5C595.7,558.8,593,558.2,591,557z"/>
			<path class="st2" d="M640.4,552.3l-3.7,6h-18.5c-1,0-1.6-0.3-1.9-1c-0.3-0.7-0.1-1.5,0.5-2.5l14.9-23.9h21.5l-3.7,6h-18.7
				l3.4,2.3l-1.4,2.3h12.2l-3.6,5.8h-12.2l-3.1,5H640.4z"/>
			<path class="st2" d="M656.7,558.2l-0.4-7.3H652l-3.1,4.9c-0.4,0.7-1,1.2-1.8,1.7c-0.8,0.5-1.5,0.7-2.2,0.7h-5.3l17.1-27.4h12.6
				c3.7,0,6.1,0.9,7.2,2.7c1.1,1.8,0.6,4.3-1.3,7.4c-2.5,4.1-6.1,6.9-10.8,8.7l0.5,8.6H656.7z M667.4,540.9c0.8-1.3,1-2.3,0.6-3
				c-0.4-0.7-1.4-1-3-1H656l3.4,2.2l-3.6,5.8h4.3c1.6,0,3-0.3,4.3-1C665.6,543.2,666.6,542.2,667.4,540.9z"/>
			<path class="st2" d="M708.1,530.8h5.5l-28.9,27.4H677l5.4-27.4h6.4c0.6,0,1,0.2,1.3,0.5c0.3,0.3,0.4,0.8,0.2,1.3l-2.7,13.3
				l-6,7.9l22.1-21c0.7-0.6,1.4-1.1,2.1-1.5C706.7,531,707.4,530.8,708.1,530.8z"/>
			<path class="st2" d="M699.4,558.2l17.1-27.4h7.8l-17.1,27.4H699.4z"/>
			<path class="st2" d="M725,558.8c-4.4,0-7.2-1.3-8.3-4c-1.2-2.7-0.5-6.1,2.1-10.2c2.6-4.2,6.2-7.6,10.7-10.2c4.5-2.7,9-4,13.4-4
				c5.1,0,7.9,1.7,8.6,5.1l-5.6,3.2c-0.6,0.3-1.1,0.5-1.6,0.5c-0.5,0-0.8-0.2-1-0.5c-0.7-1.3-2-1.9-4-1.9c-1.5,0-3,0.3-4.6,1
				c-1.6,0.6-3,1.6-4.4,2.7c-1.4,1.2-2.6,2.6-3.5,4.1c-1.5,2.3-1.9,4.2-1.4,5.7c0.5,1.4,1.9,2.2,4.2,2.2c2.5,0,5.3-1.1,8.4-3.2
				l1.5,3c0.2,0.4,0.1,0.9-0.3,1.5c-0.4,0.6-0.9,1.1-1.6,1.5C733.4,557.6,729.2,558.8,725,558.8z"/>
			<path class="st2" d="M765.9,552.3l-3.7,6h-18.5c-1,0-1.6-0.3-1.9-1c-0.3-0.7-0.1-1.5,0.5-2.5l14.9-23.9h21.5l-3.7,6h-18.7
				l3.4,2.3l-1.4,2.3h12.2l-3.6,5.8h-12.2l-3.1,5H765.9z"/>
			<path class="st2" d="M767.8,557c-0.5-0.3-0.7-0.7-0.5-1.4c0.2-0.7,0.6-1.3,1.3-2l3.8-3.5c0.5,0.5,1.1,1,1.8,1.4
				c0.7,0.4,1.6,0.7,2.5,0.9c1,0.2,1.9,0.3,3,0.3c3,0,5-0.7,5.9-2.2c0.3-0.5,0.4-0.9,0.1-1.3c-0.2-0.4-0.6-0.7-1.2-0.9
				c-0.6-0.2-1.3-0.4-2.1-0.6c-0.8-0.2-1.6-0.4-2.5-0.6c-0.8-0.2-1.6-0.5-2.3-1c-0.7-0.4-1.2-0.9-1.6-1.5c-0.4-0.5-0.5-1.3-0.4-2.2
				c0.1-0.9,0.6-2,1.4-3.2c1.6-2.6,4-4.7,7.1-6.4c3.1-1.7,6.7-2.5,10.6-2.5c3.9,0,6.7,0.8,8.4,2.4l-3.7,3.5c-0.6,0.6-1.3,1-2,1.2
				c-0.8,0.2-1.3,0.3-1.8,0c-1.5-0.8-3.1-1.1-4.8-1.1c-3,0-4.9,0.8-6,2.4c-0.4,0.7-0.4,1.2,0.1,1.6c0.5,0.4,1.3,0.7,2.3,0.9
				c1,0.2,2.1,0.5,3.2,0.8c1.1,0.4,2.1,0.8,2.9,1.3c0.8,0.5,1.3,1.3,1.3,2.4c0.1,1.1-0.4,2.5-1.4,4c-1.6,2.6-4,4.7-7.1,6.4
				c-3.1,1.7-6.7,2.5-10.6,2.5C772.5,558.8,769.8,558.2,767.8,557z"/>
			<path class="st2" d="M837.6,554.3l-6.9,4.6l-1.4-2.7c-3.8,1.9-7.5,2.8-11,2.8c-3.2,0-5.3-0.7-6.5-2.2c-1.1-1.5-1-3.3,0.4-5.5
				c1.1-1.7,2.5-3.2,4.2-4.5c1.7-1.3,3.9-2.5,6.6-3.6c-0.6-1.8-0.4-3.6,0.8-5.5c0.9-1.4,2-2.6,3.4-3.7c1.4-1.1,3-1.9,4.8-2.5
				c1.8-0.6,3.6-0.9,5.4-0.9c2.5,0,4.2,0.6,5,1.8c0.8,1.2,0.6,2.8-0.6,4.8c-0.9,1.4-2.1,2.7-3.6,3.8c-1.5,1.1-3.5,2.2-5.8,3.1
				l1.8,3.5c1.2-1.1,2.5-2.4,3.7-3.9l4.8,1.8c-2,2.3-4.1,4.4-6.4,6.2L837.6,554.3z M822.5,553.2c1.5,0,3.2-0.4,4.9-1.1l-2.6-5.2
				c-2.3,1-3.9,2.2-4.7,3.5c-0.5,0.8-0.6,1.5-0.1,2C820.4,552.9,821.3,553.2,822.5,553.2z M834.5,535.4c-0.8,0-1.5,0.2-2.1,0.6
				c-0.7,0.4-1.2,0.9-1.6,1.5c-0.3,0.5-0.5,1-0.5,1.6c0,0.6,0.1,1.1,0.2,1.4c0.2,0.4,0.4,0.9,0.7,1.4c0.3,0.6,0.5,0.9,0.6,1.1
				l0.3-3.3c1.7-0.8,2.9-1.6,3.4-2.4c0.4-0.6,0.4-1,0.3-1.3C835.7,535.6,835.2,535.4,834.5,535.4z"/>
			<path class="st4" d="M595.9,566.4c3.7,0,6.1,0.9,7.2,2.7c1.1,1.8,0.6,4.3-1.3,7.4c-2,3.1-4.6,5.6-7.9,7.4
				c-3.3,1.8-6.9,2.7-10.6,2.7h-4.8l-2.7,4.4c-0.5,0.8-1.2,1.4-2.1,2c-0.9,0.5-1.7,0.8-2.5,0.8h-4.9l17.1-27.4H595.9z M586.5,580.5
				c1.6,0,3-0.3,4.3-1c1.2-0.7,2.3-1.7,3.1-3c0.8-1.3,1-2.3,0.6-3c-0.4-0.7-1.4-1-3-1h-9.2l3.7,2l-3.7,6H586.5z"/>
			<path class="st4" d="M611.1,566.4h5.3c0.7,0,1.1,0.2,1.3,0.7c0.2,0.5,0.1,1-0.4,1.7l-10,16.1l-6.1,2.8h15.5c0.5,0,0.9,0.2,1,0.6
				c0.1,0.4,0.1,0.9-0.3,1.4l-2.6,4.1h-20.8L611.1,566.4z"/>
			<path class="st4" d="M630.4,594.4c-2.7,0-4.7-0.5-6.1-1.5c-1.3-1-1.9-2.4-1.7-4.4c0.2-1.9,1.1-4.2,2.8-6.9l9.5-15.2h5
				c0.7,0,1.2,0.3,1.4,0.8c0.2,0.5,0.1,1.2-0.4,1.9l-7.6,12.2c-2.7,4.4-2.4,6.6,1.1,6.6c3.5,0,6.6-2.2,9.3-6.6l9.3-15h4.9
				c0.8,0,1.2,0.3,1.4,0.8c0.2,0.5,0.1,1.2-0.4,1.9l-7.8,12.5c-2.5,4.1-5.6,7.2-9.3,9.4C638.3,593.2,634.5,594.4,630.4,594.4z"/>
			<path class="st4" d="M673.3,593.8c-0.5,0-0.8-0.2-1-0.5c-0.1-0.4-0.1-0.8,0.3-1.3l7.8-12.7L666,591.1h-3.4l0.1-11.5l-7.8,12.5
				c-0.3,0.5-0.7,0.9-1.2,1.2c-0.5,0.3-1,0.5-1.4,0.5h-5.5l17.1-27.4h5.2c0.8,0,1.2,0.3,1.2,1l-0.3,19.2l2.9-6.7l15.1-12.4
				c0.9-0.7,1.8-1.1,2.6-1.1h5.1l-17,27.4H673.3z"/>
			<path class="st4" d="M711.7,579.5c1.2,0.6,1.9,1.4,2.1,2.6c0.2,1.2-0.3,2.6-1.3,4.2c-1.5,2.4-3.6,4.2-6.4,5.6c-2.8,1.3-6,2-9.6,2
				H684c-0.6,0-1-0.2-1.2-0.7c-0.2-0.4-0.1-1,0.3-1.7l15.7-25.1h14c3.5,0,5.8,0.6,6.8,1.9c1,1.3,0.8,3-0.5,5.2
				C717.4,576.3,714.9,578.2,711.7,579.5z M699.3,588.2c2.7,0,4.6-0.9,5.8-2.8c1.2-1.9,0.4-2.8-2.3-2.8h-6.5l-3.5,5.6H699.3z
				 M708.3,572h-10.9l4.1,2.3l-1.8,2.9h5.3c2.6,0,4.5-0.9,5.6-2.6C711.7,572.8,710.9,572,708.3,572z"/>
			<path class="st4" d="M710.7,593.8l17.1-27.4h7.8l-17.1,27.4H710.7z"/>
			<path class="st4" d="M759.3,566.4h5.5l-17.1,27.4h-6.4l-2.9-14.6l-7.6,12.2c-0.3,0.4-0.6,0.8-1.1,1.2c-0.5,0.4-1,0.7-1.5,0.9
				c-0.5,0.2-1,0.3-1.4,0.3h-5.2l15.7-25.1c0.4-0.6,1-1.2,1.7-1.6c0.7-0.4,1.4-0.7,2.1-0.7h4l4.5,20.9l0.2-9.1l6.1-9.7
				c0.4-0.6,0.9-1.1,1.6-1.5C758.1,566.6,758.7,566.4,759.3,566.4z"/>
			<path class="st4" d="M777.9,581.9c0.2-0.3,0.5-0.6,0.8-0.9c0.3-0.3,0.6-0.5,1-0.7c0.3-0.2,0.7-0.4,1.1-0.5
				c0.4-0.1,0.7-0.2,1.1-0.2h4.5l-7.1,11.4c-2.3,1.1-4.6,2-7,2.6c-2.4,0.6-4.7,0.9-6.7,0.9c-4.4,0-7.1-1.3-8.3-4
				c-1.2-2.7-0.5-6.1,2.1-10.2c2.6-4.2,6.2-7.6,10.7-10.3c4.5-2.7,9-4,13.5-4c5.2,0,8.2,1.7,8.9,5l-4.9,2.9
				c-0.7,0.4-1.4,0.6-2.1,0.6c-0.7,0-1.1-0.2-1.5-0.5c-0.8-1-2.1-1.5-4-1.5c-1.5,0-3.1,0.3-4.7,0.9c-1.6,0.6-3.1,1.5-4.5,2.7
				s-2.6,2.6-3.6,4.1c-1.4,2.2-1.7,4-1.1,5.6c0.6,1.6,2.1,2.3,4.3,2.2c2.6-0.1,5.8-1.1,9.8-3l-3.8-0.4L777.9,581.9z"/>
		</g>
	</g>
</g>
</svg>
